<svg xmlns="http://www.w3.org/2000/svg" version="1.1" xmlns:xlink="http://www.w3.org/1999/xlink" xmlns:svgjs="http://svgjs.dev/svgjs" width="1500" height="1500" viewBox="0 0 1500 1500"><rect width="1500" height="1500" fill="#ffffff"></rect><g transform="matrix(0.6666666666666666,0,0,0.6666666666666666,249.39393939393932,541.2395325693624)"><svg viewBox="0 0 396 166" data-background-color="#f9f9f9" preserveAspectRatio="xMidYMid meet" height="628" width="1500" xmlns="http://www.w3.org/2000/svg" xmlns:xlink="http://www.w3.org/1999/xlink"><g id="tight-bounds" transform="matrix(1,0,0,1,0.24000000000003752,-0.22713950600513044)"><svg viewBox="0 0 395.5199999999999 166.45427610825777" height="166.45427610825777" width="395.5199999999999"><g><svg viewBox="0 0 758.6232632138506 319.265994430486" height="166.45427610825777" width="395.5199999999999"><g transform="matrix(1,0,0,1,363.10326321385054,113.21016221362854)"><svg viewBox="0 0 395.52 92.84567000322892" height="92.84567000322892" width="395.52"><g id="textblocktransform"><svg viewBox="0 0 395.52 92.84567000322892" height="92.84567000322892" width="395.52" id="textblock"><g><svg viewBox="0 0 395.52 92.84567000322892" height="92.84567000322892" width="395.52"><g transform="matrix(1,0,0,1,0,0)"><svg width="395.52" viewBox="4 -35.01 151.21 35.5" height="92.84567000322892" data-palette-color="#030303"><path d="M23.71-8.59L23.71-8.59Q23.71-6.81 23.03-5.25 22.36-3.69 21.19-2.51 20.02-1.34 18.44-0.67 16.87 0 15.09 0L15.09 0 4 0 4-35.01 15.09-35.01Q16.87-35.01 18.44-34.34 20.02-33.67 21.19-32.5 22.36-31.32 23.03-29.75 23.71-28.17 23.71-26.39L23.71-26.39 23.71-26.05Q23.71-24.8 23.38-23.67 23.05-22.53 22.44-21.56 21.83-20.58 21-19.79 20.17-18.99 19.14-18.46L19.14-18.46Q20.17-17.92 21-17.13 21.83-16.33 22.44-15.34 23.05-14.36 23.38-13.22 23.71-12.08 23.71-10.84L23.71-10.84 23.71-8.59ZM20.56-8.59L20.56-11.35Q20.56-12.52 20.12-13.54 19.68-14.55 18.91-15.31 18.14-16.06 17.13-16.5 16.11-16.94 14.94-16.94L14.94-16.94 7.15-16.94 7.15-3 14.94-3Q16.11-3 17.13-3.44 18.14-3.88 18.91-4.64 19.68-5.4 20.12-6.41 20.56-7.42 20.56-8.59L20.56-8.59ZM20.56-25.56L20.56-26.39Q20.56-27.56 20.12-28.58 19.68-29.59 18.91-30.36 18.14-31.13 17.13-31.57 16.11-32.01 14.94-32.01L14.94-32.01 7.15-32.01 7.15-19.95 14.94-19.95Q16.11-19.95 17.13-20.39 18.14-20.83 18.91-21.59 19.68-22.36 20.12-23.38 20.56-24.39 20.56-25.56L20.56-25.56ZM45.41 0L44.41 0 42.75-2.49Q41.72-1.15 40.18-0.33 38.64 0.49 36.81 0.49L36.81 0.49 36.06 0.49Q34.54 0.49 33.2-0.09 31.86-0.66 30.86-1.66 29.86-2.66 29.28-4 28.71-5.35 28.71-6.86L28.71-6.86 28.71-7.1Q28.71-8.62 29.28-9.96 29.86-11.3 30.86-12.3 31.86-13.31 33.2-13.88 34.54-14.45 36.06-14.45L36.06-14.45 42.4-14.45 42.4-18.31Q42.4-19.21 42.06-20.01 41.72-20.8 41.14-21.39 40.55-21.97 39.76-22.31 38.96-22.66 38.06-22.66L38.06-22.66 36.3-22.66Q35.4-22.66 34.6-22.31 33.81-21.97 33.23-21.39 32.64-20.8 32.3-20.01 31.96-19.21 31.96-18.31L31.96-18.31 31.96-17.41 28.95-17.9 28.95-18.14Q28.95-19.65 29.53-21 30.1-22.34 31.1-23.34 32.1-24.34 33.44-24.91 34.79-25.49 36.3-25.49L36.3-25.49 38.06-25.49Q39.57-25.49 40.92-24.91 42.26-24.34 43.26-23.34 44.26-22.34 44.83-21 45.41-19.65 45.41-18.14L45.41-18.14 45.41 0ZM42.4-6.69L42.4-12.11 36.06-12.11Q35.15-12.11 34.36-11.77 33.57-11.43 32.98-10.83 32.39-10.23 32.05-9.44 31.71-8.64 31.71-7.74L31.71-7.74 31.71-6.69Q31.71-5.79 32.05-4.99 32.39-4.2 32.98-3.61 33.57-3.03 34.36-2.69 35.15-2.34 36.06-2.34L36.06-2.34 38.06-2.34Q38.96-2.34 39.76-2.69 40.55-3.03 41.14-3.61 41.72-4.2 42.06-4.99 42.4-5.79 42.4-6.69L42.4-6.69ZM68.11-6.86L68.11-6.86Q68.11-5.35 67.54-4 66.96-2.66 65.96-1.66 64.96-0.66 63.62-0.09 62.28 0.49 60.76 0.49L60.76 0.49 58.76 0.49Q57.25 0.49 55.9-0.09 54.56-0.66 53.56-1.66 52.56-2.66 51.98-4 51.41-5.35 51.41-6.86L51.41-6.86 51.41-18.14Q51.41-19.65 51.98-21 52.56-22.34 53.56-23.34 54.56-24.34 55.9-24.91 57.25-25.49 58.76-25.49L58.76-25.49 60.76-25.49Q62.28-25.49 63.62-24.91 64.96-24.34 65.96-23.34 66.96-22.34 67.54-21 68.11-19.65 68.11-18.14L68.11-18.14 68.11-17.14 65.11-16.65 65.11-18.31Q65.11-19.21 64.77-20.01 64.42-20.8 63.84-21.39 63.25-21.97 62.46-22.31 61.66-22.66 60.76-22.66L60.76-22.66 58.76-22.66Q57.86-22.66 57.06-22.31 56.27-21.97 55.68-21.39 55.1-20.8 54.76-20.01 54.41-19.21 54.41-18.31L54.41-18.31 54.41-6.69Q54.41-5.79 54.76-4.99 55.1-4.2 55.68-3.61 56.27-3.03 57.06-2.69 57.86-2.34 58.76-2.34L58.76-2.34 60.76-2.34Q61.66-2.34 62.46-2.69 63.25-3.03 63.84-3.61 64.42-4.2 64.77-4.99 65.11-5.79 65.11-6.69L65.11-6.69 65.11-8.35 68.11-7.86 68.11-6.86ZM99.82 0L96.67 0 96.67-24 96.45-22.51 88.32 0 86.66 0 78.46-22.51 78.26-24 78.26 0 75.11 0 75.11-35.01 76.75-35.01 87.37-6.3 87.47-5 87.57-6.3 98.16-35.01 99.82-35.01 99.82 0ZM123.01 0L122.01 0 120.35-2.49Q119.33-1.15 117.79-0.33 116.25 0.49 114.42 0.49L114.42 0.49 113.66 0.49Q112.15 0.49 110.81-0.09 109.46-0.66 108.46-1.66 107.46-2.66 106.89-4 106.31-5.35 106.31-6.86L106.31-6.86 106.31-7.1Q106.31-8.62 106.89-9.96 107.46-11.3 108.46-12.3 109.46-13.31 110.81-13.88 112.15-14.45 113.66-14.45L113.66-14.45 120.01-14.45 120.01-18.31Q120.01-19.21 119.67-20.01 119.33-20.8 118.74-21.39 118.15-21.97 117.36-22.31 116.57-22.66 115.66-22.66L115.66-22.66 113.91-22.66Q113-22.66 112.21-22.31 111.42-21.97 110.83-21.39 110.24-20.8 109.9-20.01 109.56-19.21 109.56-18.31L109.56-18.31 109.56-17.41 106.56-17.9 106.56-18.14Q106.56-19.65 107.13-21 107.7-22.34 108.71-23.34 109.71-24.34 111.05-24.91 112.39-25.49 113.91-25.49L113.91-25.49 115.66-25.49Q117.18-25.49 118.52-24.91 119.86-24.34 120.86-23.34 121.87-22.34 122.44-21 123.01-19.65 123.01-18.14L123.01-18.14 123.01 0ZM120.01-6.69L120.01-12.11 113.66-12.11Q112.76-12.11 111.97-11.77 111.17-11.43 110.59-10.83 110-10.23 109.66-9.44 109.32-8.64 109.32-7.74L109.32-7.74 109.32-6.69Q109.32-5.79 109.66-4.99 110-4.2 110.59-3.61 111.17-3.03 111.97-2.69 112.76-2.34 113.66-2.34L113.66-2.34 115.66-2.34Q116.57-2.34 117.36-2.69 118.15-3.03 118.74-3.61 119.33-4.2 119.67-4.99 120.01-5.79 120.01-6.69L120.01-6.69ZM139.37-22.14L136.36-22.14Q135.46-22.14 134.67-21.8 133.87-21.46 133.29-20.87 132.7-20.29 132.36-19.49 132.02-18.7 132.02-17.8L132.02-17.8 132.02 0 129.02 0 129.02-25 130.02-25 131.65-22.46Q132.68-23.85 134.23-24.67 135.78-25.49 137.61-25.49L137.61-25.49 139.37-25.49 139.37-22.14ZM155.21 0L152.48 0Q151.11 0 149.9-0.51 148.69-1.03 147.8-1.93 146.91-2.83 146.38-4.03 145.86-5.22 145.86-6.59L145.86-6.59 145.86-22.14 141.37-22.14 141.37-25 145.86-25 145.86-31.01 148.86-31.49 148.86-25 155.21-25 155.21-22.14 148.86-22.14 148.86-6.45Q148.86-5.69 149.14-5.04 149.42-4.39 149.91-3.91 150.4-3.42 151.06-3.14 151.72-2.86 152.48-2.86L152.48-2.86 155.21-2.86 155.21 0Z" opacity="1" transform="matrix(1,0,0,1,0,0)" fill="#000000" class="wordmark-text-0" data-fill-palette-color="primary" id="text-0"></path></svg></g></svg></g></svg></g></svg></g><g><svg viewBox="0 0 319.265994430486 319.265994430486" height="319.265994430486" width="319.265994430486"><g><svg></svg></g><g id="icon-0"><svg viewBox="0 0 319.265994430486 319.265994430486" height="319.265994430486" width="319.265994430486"><g><path d="M0 159.633c0-88.163 71.47-159.633 159.633-159.633 88.163 0 159.633 71.47 159.633 159.633 0 88.163-71.47 159.633-159.633 159.633-88.163 0-159.633-71.47-159.633-159.633zM159.633 310.893c83.539 0 151.26-67.721 151.26-151.26 0-83.539-67.721-151.26-151.26-151.26-83.539 0-151.26 67.721-151.26 151.26 0 83.539 67.721 151.26 151.26 151.26z" data-fill-palette-color="accent" fill="#000000" stroke="transparent"></path></g><g transform="matrix(1,0,0,1,64.70731911075573,83.59209278123431)"><svg viewBox="0 0 189.85135620897452 152.08180886801736" height="152.08180886801736" width="189.85135620897452"><g><svg xmlns="http://www.w3.org/2000/svg" xmlns:xlink="http://www.w3.org/1999/xlink" version="1.1" x="0" y="0" viewBox="9.224 11.142 85.12499999999999 68.19000000000001" enable-background="new 0 0 100 100" xml:space="preserve" height="152.08180886801736" width="189.85135620897452" class="icon-cg-0" data-fill-palette-color="accent" id="cg-0"><g fill="#030303" data-fill-palette-color="accent"><g fill="#030303" data-fill-palette-color="accent"><path d="M22.958 79.083h57.658M82.941 79.331c1.234 0 2.324-1 2.324-2.238V52.198c0.93 0.211 1.283 0.334 1.957 0.334 3.905 0 6.816-4.028 7.014-6.667l0.113-1.245h-0.098c0.005 0 0.014-0.231-0.025-0.359-0.06-0.19-0.177-0.321-0.312-0.444L84.18 11.924c-0.143-0.469-0.576-0.782-1.068-0.782H20.464c-0.493 0-0.929 0.324-1.071 0.797l-9.59 31.799c-0.224 0.151-0.399 0.336-0.479 0.603-0.03 0.107-0.018 0.279-0.018 0.279H9.224l0.091 1.246c0.199 2.638 3.128 6.646 7.035 6.646 0.674 0 1.028-0.104 1.958-0.313v24.895c0 1.238 1.091 2.238 2.326 2.238M70.611 44.62l-4.199-31.618h6.708l6.993 31.618H70.611zM47.05 44.62l1.389-31.618h6.446l1.327 31.618H47.05zM23.523 44.62l6.919-31.618h6.751L32.911 44.62H23.523zM22.957 72.521V49.557c0.93 1.638 3.045 2.978 5.306 2.978 2.572 0 4.634-1.735 5.849-3.668 1.213 1.933 3.308 3.668 5.881 3.668 2.572 0 4.684-1.735 5.896-3.668 1.213 1.933 3.332 3.668 5.906 3.668 2.572 0 4.696-1.735 5.91-3.668 1.212 1.933 3.337 3.668 5.908 3.668 2.574 0 4.699-1.735 5.914-3.668 1.213 1.933 3.209 3.668 5.783 3.668 2.262 0 4.373-1.34 5.303-2.978v22.964H22.957L22.957 72.521z" fill="#000000" data-fill-palette-color="accent"></path></g></g><path d="M73 71.125C73 74.37 70.37 77 67.125 77l0 0c-3.245 0-5.875-2.63-5.875-5.875v-7.75c0-3.245 2.63-5.875 5.875-5.875l0 0C70.37 57.5 73 60.13 73 63.375V71.125z" fill="#000000" data-fill-palette-color="accent"></path><path d="M58 71.125C58 74.37 55.37 77 52.125 77l0 0c-3.245 0-5.875-2.63-5.875-5.875v-7.75c0-3.245 2.63-5.875 5.875-5.875l0 0C55.37 57.5 58 60.13 58 63.375V71.125z" fill="#000000" data-fill-palette-color="accent"></path><path d="M43 71.125C43 74.37 40.37 77 37.125 77l0 0c-3.245 0-5.875-2.63-5.875-5.875v-7.75c0-3.245 2.63-5.875 5.875-5.875l0 0C40.37 57.5 43 60.13 43 63.375V71.125z" fill="#000000" data-fill-palette-color="accent"></path></svg></g></svg></g></svg></g></svg></g></svg></g><defs></defs></svg><rect width="395.5199999999999" height="166.45427610825777" fill="none" stroke="none" visibility="hidden"></rect></g></svg></g></svg>