<svg xmlns="http://www.w3.org/2000/svg" version="1.1" xmlns:xlink="http://www.w3.org/1999/xlink" xmlns:svgjs="http://svgjs.dev/svgjs" width="1500" height="1500" viewBox="0 0 1500 1500"><rect width="1500" height="1500" fill="#ffffff"></rect><g transform="matrix(0.6666666666666666,0,0,0.6666666666666666,249.39393939393932,571.4321580173545)"><svg viewBox="0 0 396 141" data-background-color="#2590db" preserveAspectRatio="xMidYMid meet" height="534" width="1500" xmlns="http://www.w3.org/2000/svg" xmlns:xlink="http://www.w3.org/1999/xlink"><g id="tight-bounds" transform="matrix(1,0,0,1,0.24000000000003752,0.22490370660960934)"><svg viewBox="0 0 395.5199999999999 140.55019258678078" height="140.55019258678078" width="395.5199999999999"><g><svg viewBox="0 0 668.5676783389081 237.5791766480341" height="140.55019258678078" width="395.5199999999999"><g transform="matrix(1,0,0,1,273.0476783389081,81.22911871796434)"><svg viewBox="0 0 395.52 75.12093921210541" height="75.12093921210541" width="395.52"><g id="textblocktransform"><svg viewBox="0 0 395.52 75.12093921210541" height="75.12093921210541" width="395.52" id="textblock"><g><svg viewBox="0 0 395.52 75.12093921210541" height="75.12093921210541" width="395.52"><g transform="matrix(1,0,0,1,0,0)"><svg width="395.52" viewBox="3.75 -35.8 191.64 36.4" height="75.12093921210541" data-palette-color="#ffffff"><path d="M19.85 0L3.75 0 3.75-35.8 19.7-35.8Q25.15-35.8 28.15-33.15L28.15-33.15Q31.4-30.35 31.4-26.35L31.4-26.35Q31.4-24.05 30.28-22.38 29.15-20.7 26.5-19L26.5-19Q32.4-15.5 32.4-10.3L32.4-10.3Q32.4-5.6 28.85-2.6L28.85-2.6Q25.75 0 19.85 0L19.85 0ZM19.15-29.65L11.1-29.65 11.1-21.55 19.15-21.55Q24.3-21.55 24.3-25.6L24.3-25.6Q24.3-29.65 19.15-29.65L19.15-29.65ZM19.9-15.4L11.1-15.4 11.1-6.15 19.9-6.15Q25.35-6.15 25.35-10.75L25.35-10.75Q25.35-15.4 19.9-15.4L19.9-15.4ZM60.6-1.75L60.6-1.75 60.6 0 53.1 0Q52.35-0.95 52.3-2.7L52.3-2.7Q49.55 0.55 44.3 0.55L44.3 0.55Q40.45 0.55 38.1-1.8L38.1-1.8Q36.2-3.7 36.2-7.05L36.2-7.05Q36.2-12.05 40.2-14.15L40.2-14.15Q41.9-15.05 46.95-15.95L46.95-15.95 52.35-16.95 52.3-18.85Q52.25-21.5 48.3-21.5L48.3-21.5Q45.75-21.5 44.72-20.73 43.7-19.95 43.45-17.9L43.45-17.9 36.85-17.9Q37.45-27.05 48.15-27.05L48.15-27.05Q54.05-27.05 56.65-24.95L56.65-24.95Q59-22.95 59-18.9L59-18.9 59-4.1Q59-2.3 60.6-1.75ZM52.3-10.85L52.35-12.8 47.3-11.65Q45.15-11.15 44.1-10.2L44.1-10.2Q43.1-9.25 43.1-7.85L43.1-7.85Q43.1-5 46.8-5L46.8-5Q52.15-5 52.3-10.85L52.3-10.85ZM87.65-16.8L87.65-16.8 81.1-16.8Q80.5-19.4 79.37-20.45 78.25-21.5 76.2-21.5L76.2-21.5Q73.1-21.5 71.9-19.3L71.9-19.3Q70.6-16.75 70.6-13.05L70.6-13.05Q70.6-9.3 72.07-7.13 73.55-4.95 76.15-4.95L76.15-4.95Q78.2-4.95 79.32-6.03 80.45-7.1 81.1-9.6L81.1-9.6 87.65-9.6Q87.15-4.6 83.65-1.85L83.65-1.85Q80.6 0.6 76.1 0.6L76.1 0.6Q69.8 0.6 66.55-3.45L66.55-3.45Q63.7-6.95 63.7-12.9L63.7-12.9Q63.7-20.1 67.45-23.8L67.45-23.8Q70.7-27.05 76.25-27.05L76.25-27.05Q81.55-27.05 84.65-24L84.65-24Q87.3-21.3 87.65-16.8ZM106.89 0L100.44-27.85 100.44 0 93.09 0 93.09-35.8 104.09-35.8 110.59-7.3 116.84-35.8 127.94-35.8 127.94 0 120.59 0 120.59-27.85 114.24 0 106.89 0ZM157.29-1.75L157.29-1.75 157.29 0 149.79 0Q149.04-0.95 148.99-2.7L148.99-2.7Q146.24 0.55 140.99 0.55L140.99 0.55Q137.14 0.55 134.79-1.8L134.79-1.8Q132.89-3.7 132.89-7.05L132.89-7.05Q132.89-12.05 136.89-14.15L136.89-14.15Q138.59-15.05 143.64-15.95L143.64-15.95 149.04-16.95 148.99-18.85Q148.94-21.5 144.99-21.5L144.99-21.5Q142.44-21.5 141.42-20.73 140.39-19.95 140.14-17.9L140.14-17.9 133.54-17.9Q134.14-27.05 144.84-27.05L144.84-27.05Q150.74-27.05 153.34-24.95L153.34-24.95Q155.69-22.95 155.69-18.9L155.69-18.9 155.69-4.1Q155.69-2.3 157.29-1.75ZM148.99-10.85L149.04-12.8 143.99-11.65Q141.84-11.15 140.79-10.2L140.79-10.2Q139.79-9.25 139.79-7.85L139.79-7.85Q139.79-5 143.49-5L143.49-5Q148.84-5 148.99-10.85L148.99-10.85ZM161.94 0L161.94-26.5 168.84-26.5 168.84-21.45Q170.14-27.05 176.24-27.05L176.24-27.05Q177.19-27.05 177.59-27.05L177.59-27.05 177.64-20.25Q176.39-20.5 175.04-20.5L175.04-20.5Q171.64-20.5 170.34-19.25L170.34-19.25Q168.84-17.85 168.84-14.2L168.84-14.2 168.84 0 161.94 0ZM188.94-26.5L193.59-26.5 193.59-21.95 188.94-21.95 188.94-7.2Q188.94-5.75 189.46-5.2 189.99-4.65 191.39-4.65L191.39-4.65Q192.54-4.65 194.34-5.55L194.34-5.55Q194.49-5.65 194.59-5.7L194.59-5.7 195.39-1Q192.24 0.55 188.79 0.55L188.79 0.55Q182.04 0.55 182.04-5.65L182.04-5.65 182.04-21.95 178.64-21.95 178.64-26.5 182.04-26.5 182.04-30.9 188.94-34.85 188.94-26.5Z" opacity="1" transform="matrix(1,0,0,1,0,0)" fill="#000000" class="wordmark-text-0" data-fill-palette-color="primary" id="text-0"></path></svg></g></svg></g></svg></g></svg></g><g><svg viewBox="0 0 237.5791766480341 237.5791766480341" height="237.5791766480341" width="237.5791766480341"><g><svg></svg></g><g id="icon-0"><svg viewBox="0 0 237.5791766480341 237.5791766480341" height="237.5791766480341" width="237.5791766480341"><g><path d="M0 118.79c0-65.606 53.184-118.79 118.79-118.79 65.606 0 118.79 53.184 118.789 118.79 0 65.606-53.184 118.79-118.789 118.789-65.606 0-118.79-53.184-118.79-118.789zM118.79 230.805c61.864 0 112.015-50.151 112.015-112.015 0-61.864-50.151-112.015-112.015-112.016-61.864 0-112.015 50.151-112.016 112.016 0 61.864 50.151 112.015 112.016 112.015z" data-fill-palette-color="accent" fill="#000000" stroke="transparent"></path></g><g transform="matrix(1,0,0,1,48.55259567484056,62.52573482918772)"><svg viewBox="0 0 140.47398529835297 112.52770698965865" height="112.52770698965865" width="140.47398529835297"><g><svg xmlns="http://www.w3.org/2000/svg" xmlns:xlink="http://www.w3.org/1999/xlink" version="1.1" x="0" y="0" viewBox="9.224 11.142 85.12499999999999 68.19000000000001" enable-background="new 0 0 100 100" xml:space="preserve" height="112.52770698965865" width="140.47398529835297" class="icon-cg-0" data-fill-palette-color="accent" id="cg-0"><g fill="#ffffff" data-fill-palette-color="accent"><g fill="#ffffff" data-fill-palette-color="accent"><path d="M22.958 79.083h57.658M82.941 79.331c1.234 0 2.324-1 2.324-2.238V52.198c0.93 0.211 1.283 0.334 1.957 0.334 3.905 0 6.816-4.028 7.014-6.667l0.113-1.245h-0.098c0.005 0 0.014-0.231-0.025-0.359-0.06-0.19-0.177-0.321-0.312-0.444L84.18 11.924c-0.143-0.469-0.576-0.782-1.068-0.782H20.464c-0.493 0-0.929 0.324-1.071 0.797l-9.59 31.799c-0.224 0.151-0.399 0.336-0.479 0.603-0.03 0.107-0.018 0.279-0.018 0.279H9.224l0.091 1.246c0.199 2.638 3.128 6.646 7.035 6.646 0.674 0 1.028-0.104 1.958-0.313v24.895c0 1.238 1.091 2.238 2.326 2.238M70.611 44.62l-4.199-31.618h6.708l6.993 31.618H70.611zM47.05 44.62l1.389-31.618h6.446l1.327 31.618H47.05zM23.523 44.62l6.919-31.618h6.751L32.911 44.62H23.523zM22.957 72.521V49.557c0.93 1.638 3.045 2.978 5.306 2.978 2.572 0 4.634-1.735 5.849-3.668 1.213 1.933 3.308 3.668 5.881 3.668 2.572 0 4.684-1.735 5.896-3.668 1.213 1.933 3.332 3.668 5.906 3.668 2.572 0 4.696-1.735 5.91-3.668 1.212 1.933 3.337 3.668 5.908 3.668 2.574 0 4.699-1.735 5.914-3.668 1.213 1.933 3.209 3.668 5.783 3.668 2.262 0 4.373-1.34 5.303-2.978v22.964H22.957L22.957 72.521z" fill="#000000" data-fill-palette-color="accent"></path></g></g><path d="M73 71.125C73 74.37 70.37 77 67.125 77l0 0c-3.245 0-5.875-2.63-5.875-5.875v-7.75c0-3.245 2.63-5.875 5.875-5.875l0 0C70.37 57.5 73 60.13 73 63.375V71.125z" fill="#000000" data-fill-palette-color="accent"></path><path d="M58 71.125C58 74.37 55.37 77 52.125 77l0 0c-3.245 0-5.875-2.63-5.875-5.875v-7.75c0-3.245 2.63-5.875 5.875-5.875l0 0C55.37 57.5 58 60.13 58 63.375V71.125z" fill="#000000" data-fill-palette-color="accent"></path><path d="M43 71.125C43 74.37 40.37 77 37.125 77l0 0c-3.245 0-5.875-2.63-5.875-5.875v-7.75c0-3.245 2.63-5.875 5.875-5.875l0 0C40.37 57.5 43 60.13 43 63.375V71.125z" fill="#000000" data-fill-palette-color="accent"></path></svg></g></svg></g></svg></g></svg></g></svg></g><defs></defs></svg><rect width="395.5199999999999" height="140.55019258678078" fill="none" stroke="none" visibility="hidden"></rect></g></svg></g></svg>